<?xml version="1.0" encoding="utf-8"?>
<!-- Generator: Adobe Illustrator 26.3.1, SVG Export Plug-In . SVG Version: 6.00 Build 0)  -->
<svg version="1.1" id="Capa_1" xmlns="http://www.w3.org/2000/svg" xmlns:xlink="http://www.w3.org/1999/xlink" x="0px" y="0px"
	 viewBox="0 0 308 94" style="enable-background:new 0 0 308 94;" xml:space="preserve">
<style type="text/css">
	.st0{fill:#12269D;}
	.st1{fill:#0121A6;}
	.st2{fill:#26B6FF;}
</style>
<g>
	<g id="XMLID_00000069379126507518946010000012903259278905449346_">
		<path id="XMLID_00000104687594139196175460000009880583387088648865_" class="st0" d="M59.4,62c9,0.3,15.8-4.6,16.2-11.8
			c0.4-7.8-7.4-9.6-13.7-11l0,0c-4.3-0.9-8-1.8-7.8-4.1c0.1-2,2.6-3.5,5.7-3.4c3.5,0.1,7.1,1.6,7.8,3.7c0.1,0.2,0.4,0.4,0.6,0.2
			c1.6-0.9,6.1-3.4,6.1-3.4c0.2-0.1,0.3-0.4,0.2-0.6c-2.1-4.6-7.6-7.6-14.3-7.8c-8.2-0.3-14.7,4.5-15.1,11.1
			c-0.5,8.8,7.5,10.4,13.8,11.7c4.8,1,7.6,1.7,7.6,3.9c-0.1,2.2-3.1,3.7-6.8,3.6c-3.8-0.1-6.4-1.5-7.8-4.3c-0.1-0.2-0.4-0.3-0.6-0.1
			l-6.2,3.4C45,53.2,45,53.4,45,53.6C47.4,58.6,52.7,61.8,59.4,62z"/>
		<path id="XMLID_00000168116556035521757750000001960989587533635471_" class="st0" d="M116.5,16.9c-0.1-0.1-0.3-0.1-0.4-0.1
			l-7.8,4.4c-0.4,0.2-0.6,0.6-0.6,1.1v12.3c-2.9-2.6-6.6-4-10.6-4c-10,0-17.3,7.8-17.3,18.4c0,10.7,7.3,18.4,17.3,18.4
			c4.3,0,8.3-1.6,11.2-4.4l1.4,2.6c0.2,0.4,0.6,0.6,1,0.6h5.7c0.2,0,0.4-0.2,0.4-0.4V17.2C116.7,17.1,116.7,17,116.5,16.9z
			 M98.4,58.8c-5.6,0-9.6-4.1-9.6-9.8c0-5.7,4.1-9.8,9.6-9.8c5.6,0,9.6,4.1,9.6,9.8C108,54.7,104,58.8,98.4,58.8z"/>
		<path id="XMLID_00000003086900358572052840000009569375153157909433_" class="st0" d="M75.8,65.5c-0.1-0.1-0.3-0.2-0.4-0.1
			c-4.5,2.5-9.6,3.9-14.9,3.9l0,0l0,0c-5.4,0-10.5-1.4-14.9-3.9c-0.1-0.1-0.4-0.1-0.4,0.1l-4.1,6c-0.1,0.1-0.1,0.4,0.1,0.5
			c5.8,3.3,12.3,5.2,19.4,5.2l0,0l0,0c7,0,13.6-1.9,19.4-5.2c0.1-0.1,0.2-0.4,0.1-0.5L75.8,65.5z"/>
		<path id="XMLID_00000100377970099774100530000013390595063876880259_" class="st0" d="M22.6,30.5C11.6,30.5,4,38.1,4,48.9
			s7.6,18.4,18.6,18.4s18.6-7.6,18.6-18.4C41.2,38.1,33.5,30.5,22.6,30.5z M22.6,59.2c-5.6,0-9.6-4.3-9.6-10.3
			c0-5.9,4.1-10.3,9.6-10.3s9.6,4.3,9.6,10.3S28.1,59.2,22.6,59.2z"/>
		<path id="XMLID_00000042720415128265175810000015469824534274619522_" class="st0" d="M152.8,35.7c-3.3-3.3-7.9-5.1-13.1-5.1
			c-10.6,0-18.3,7.6-18.3,18.1c0,10.9,7.8,18.8,18.5,18.8c6.8,0,13.1-3.4,15.6-8.3c0.1-0.2,0-0.6-0.3-0.6l-7.4-2.4
			c-0.2-0.1-0.4,0-0.5,0.1c-1.7,2-4.7,3.4-7.7,3.4c-4.5,0-7.8-2.9-9-7.4h26.5c0.2,0,0.4-0.1,0.4-0.4l0.1-0.6
			c0.1-0.4,0.1-1.6,0.1-2.5C157.9,43.6,156.1,38.9,152.8,35.7z M130.8,44.9c1.2-4.1,4.5-6.6,8.6-6.6c4.4,0,7.8,2.6,8.8,6.6H130.8z"
			/>
	</g>
	<rect x="189.5" y="4.5" class="st1" width="3.6" height="84.9"/>
	<g>
		<g>
			<path class="st0" d="M282.3,34c-6.2,0-11.8,2.6-15.8,6.9c1.6,1.9,2.8,4,3.6,6.3c2.7-3.8,7.1-6.3,12.1-6.3
				c8.2,0,14.8,6.6,14.8,14.8s-6.6,14.8-14.8,14.8c-3.3,0-6.6-1.1-9.1-3.1c-2.3-1.8-4.1-4.2-4.9-6.9c-0.6-1.9-0.7-3.9-0.9-5.9
				c-0.1-1.9-0.4-3.7-1-5.4c-0.6-1.8-1.4-3.5-2.4-5.1c-3.9-6-10.6-10-18.3-10c-1.1,0-2.1,0.1-3.2,0.2c-2.8,0.4-5.4,1.4-7.6,2.6
				l2.8-13.4h22.9v-6.8h-28.1l-7.7,34l7.8-1.8c2.2-4.4,6.6-7.5,11.7-8.1c0.5-0.1,1-0.1,1.5-0.1c2.9,0,5.8,0.9,8.2,2.5
				c2.4,1.6,4.3,3.8,5.4,6.4c0.6,1.4,1,2.7,1.1,4.2c0.2,1.6,0.1,3.4,0.4,5c0.6,3.6,1.9,6.9,4.1,9.8c2,2.6,4.6,4.9,7.6,6.4
				c3,1.5,6.4,2.3,9.8,2.3l0,0c12,0,21.7-9.7,21.7-21.7C304,43.7,294.3,34,282.3,34z"/>
			<path id="XMLID_00000111907922779924868960000017389057980682785946_" class="st2" d="M258,67.6c-0.1-0.1-0.3-0.1-0.4-0.1
				c-4,2.2-8.3,3.3-13.2,3.3l0,0l0,0c-4.9,0-9.2-1.1-13.3-3.4c-0.1-0.1-0.3-0.1-0.4,0.1l-3.9,4.6c-0.1,0.1-0.1,0.4,0.1,0.4
				c5.2,3,11.1,4.6,17.5,4.6l0,0l0,0c6.4,0,12.3-1.7,17.5-4.6c0.1-0.1,0.2-0.3,0.1-0.4L258,67.6z"/>
		</g>
	</g>
</g>
</svg>
